<?xml version="1.0" standalone="no"?>
<!DOCTYPE svg PUBLIC "-//W3C//DTD SVG 20010904//EN"
 "http://www.w3.org/TR/2001/REC-SVG-20010904/DTD/svg10.dtd">
<svg version="1.0" xmlns="http://www.w3.org/2000/svg"
 width="500.000000pt" height="500.000000pt" viewBox="0 0 500.000000 500.000000"
 preserveAspectRatio="xMidYMid meet">
<metadata>
Created by potrace 1.14, written by Peter Selinger 2001-2017
</metadata>
<g transform="translate(0.000000,500.000000) scale(0.100000,-0.100000)"
fill="#000000" stroke="none">
<path d="M2010 4556 c-8 -10 -18 -12 -33 -7 -27 10 -67 -3 -67 -23 0 -11 -8
-13 -33 -9 -28 4 -37 1 -53 -19 -11 -14 -25 -23 -32 -20 -20 6 -62 -26 -62
-49 0 -15 -5 -19 -18 -15 -26 9 -54 -15 -55 -47 -1 -18 -8 -27 -19 -27 -26 0
-50 -30 -45 -57 2 -14 -1 -23 -8 -23 -20 0 -47 -37 -43 -61 2 -14 -6 -32 -19
-46 -24 -23 -30 -48 -13 -58 6 -3 10 -11 10 -18 0 -6 -7 -1 -16 11 -18 26 -71
31 -80 7 -5 -13 -8 -13 -21 0 -20 21 -67 19 -87 -4 -10 -11 -24 -17 -32 -14
-24 9 -62 -6 -69 -26 -4 -13 -17 -21 -38 -23 -26 -2 -34 -9 -42 -35 -7 -24
-15 -33 -31 -33 -26 0 -57 -44 -49 -70 4 -13 0 -20 -15 -25 -22 -7 -36 -45
-26 -71 4 -9 0 -22 -8 -28 -25 -20 -29 -53 -7 -75 16 -16 17 -21 5 -25 -22 -8
-18 -73 5 -93 23 -19 19 -33 -9 -33 -10 0 -27 -11 -38 -25 -11 -14 -29 -25
-40 -25 -24 0 -52 -25 -52 -46 0 -8 -10 -14 -24 -14 -29 0 -48 -22 -48 -54 0
-20 -5 -24 -28 -22 -28 2 -30 -3 -32 -56 -1 -19 -7 -28 -24 -32 -27 -7 -39
-38 -26 -63 8 -13 5 -20 -11 -28 -16 -8 -22 -20 -23 -48 0 -21 -6 -43 -12 -49
-16 -16 -15 -61 0 -76 10 -10 10 -15 1 -20 -19 -12 -14 -131 7 -152 11 -11 15
-28 12 -53 -3 -31 0 -38 20 -47 20 -9 23 -17 20 -45 -4 -30 0 -36 22 -45 19
-7 26 -17 26 -35 0 -18 9 -31 30 -43 17 -9 33 -26 36 -37 8 -25 23 -35 52 -35
12 0 22 -6 22 -14 0 -21 28 -46 52 -46 11 0 32 -12 45 -26 18 -19 30 -24 48
-20 17 4 31 0 45 -14 23 -23 50 -26 69 -8 10 11 14 10 22 -5 11 -19 59 -23 75
-7 8 8 19 7 37 -1 20 -9 33 -9 50 -2 21 10 43 -3 208 -119 101 -71 189 -135
196 -141 10 -10 34 -135 128 -671 l12 -69 -54 -23 c-30 -14 -58 -22 -63 -19
-5 3 -12 0 -17 -8 -8 -12 -124 -72 -153 -79 -8 -2 -21 -9 -28 -15 -7 -7 -20
-13 -27 -13 -19 0 -64 -46 -76 -77 -13 -35 -11 -64 6 -97 8 -15 12 -32 9 -37
-3 -5 2 -6 10 -3 9 3 16 2 16 -3 0 -6 17 -15 39 -21 30 -10 56 -9 121 2 46 8
86 14 89 14 3 -1 13 2 21 5 8 3 32 8 52 10 34 4 36 3 35 -22 -2 -20 3 -27 20
-29 16 -2 29 9 53 44 18 25 35 42 39 37 35 -51 120 -55 341 -14 85 16 157 27
159 26 2 -2 -7 -37 -19 -77 -12 -40 -24 -84 -26 -98 -3 -14 -11 -45 -18 -70
-8 -25 -35 -126 -61 -225 -25 -99 -51 -190 -56 -203 -5 -13 -9 -30 -9 -38 0
-8 -6 -30 -14 -48 l-14 -33 -73 18 c-41 10 -81 19 -90 19 -22 0 -33 -30 -17
-46 17 -16 159 -54 203 -54 30 0 35 4 40 28 3 15 15 61 26 102 11 41 22 82 24
90 2 8 4 17 5 20 1 3 2 8 1 12 0 4 4 20 11 35 6 15 13 37 15 48 11 58 86 332
94 341 5 6 6 13 3 16 -2 3 2 23 10 44 8 22 17 60 21 86 6 45 8 48 43 54 20 3
54 10 74 14 l38 8 2 -447 3 -446 123 -3 123 -3 -3 23 c-3 22 -9 23 -93 28
l-90 5 -3 427 -2 427 47 7 c27 3 117 19 201 35 269 49 290 82 238 372 -13 70
-20 127 -17 127 32 0 408 73 417 81 7 6 19 7 25 3 8 -4 9 -3 5 5 -4 6 -1 22 7
34 14 21 28 127 17 124 -3 -1 -19 13 -36 30 -17 18 -42 34 -55 37 -13 2 -118
12 -234 21 -115 9 -211 17 -212 18 -1 2 -40 217 -58 325 -3 18 -2 32 4 32 5 0
11 6 13 13 2 6 59 92 128 190 118 167 127 177 157 177 21 0 37 7 45 19 9 15
19 18 44 14 26 -4 35 -1 48 20 10 15 26 25 41 25 31 0 55 19 55 43 0 13 7 19
23 19 13 0 28 5 35 12 7 7 12 22 12 35 0 16 6 23 20 23 26 0 54 43 45 71 -5
14 -3 19 4 15 18 -11 54 33 48 60 -3 17 1 28 14 34 23 13 33 44 20 68 -8 14
-5 22 10 35 23 20 24 44 4 67 -14 15 -14 18 0 30 19 16 19 54 0 70 -11 9 -13
16 -5 24 16 16 12 55 -9 73 -15 13 -18 21 -10 35 12 23 -12 68 -37 68 -11 0
-12 4 -4 19 15 28 -7 71 -36 71 -17 0 -21 4 -17 20 7 25 -22 60 -49 60 -11 0
-18 7 -18 18 0 24 -19 42 -44 42 -13 0 -28 12 -39 31 -14 26 -22 31 -46 27
-22 -3 -31 0 -34 14 -6 22 -46 39 -68 28 -10 -6 -19 -2 -27 11 -13 21 -66 26
-78 8 -5 -8 -10 -6 -16 5 -5 9 -14 16 -20 16 -6 0 -19 7 -29 16 -14 13 -15 20
-5 45 10 28 8 33 -15 53 -18 16 -24 28 -18 37 11 21 -12 63 -38 67 -15 2 -19
8 -16 23 8 27 -26 62 -54 56 -12 -2 -20 0 -17 5 3 5 -2 20 -11 34 -13 20 -23
25 -45 22 -22 -3 -30 0 -35 16 -4 12 -7 24 -7 27 1 3 -18 3 -41 -2 -32 -5 -44
-4 -50 7 -11 19 -76 18 -83 -1 -5 -13 -8 -13 -21 0 -20 20 -60 19 -74 -3 -8
-13 -20 -17 -44 -14 -27 3 -36 -1 -50 -22 -21 -32 -35 -33 -35 -3 0 24 -27 57
-47 57 -6 0 -14 11 -17 25 -6 24 -52 53 -64 40 -3 -3 -11 8 -18 25 -10 23 -20
30 -40 30 -16 0 -34 10 -47 26 -16 21 -26 25 -52 21 -24 -4 -34 -1 -43 14 -14
22 -52 25 -71 7 -10 -11 -14 -10 -22 5 -11 20 -59 23 -77 5 -9 -9 -15 -9 -24
0 -17 17 -63 15 -78 -2z m1065 -1840 l27 -25 -36 -47 c-20 -26 -36 -45 -36
-42 0 2 -5 31 -11 63 -8 46 -8 60 3 66 19 13 24 11 53 -15z m-1394 -256 c4
-19 9 -50 13 -68 l6 -33 -54 38 c-49 35 -52 39 -35 51 11 7 19 22 19 33 0 15
6 20 22 17 16 -2 24 -12 29 -38z m1719 -571 c91 -6 175 -16 188 -22 45 -21 40
-104 -8 -117 -26 -8 -132 -28 -185 -35 -16 -2 -68 -11 -114 -19 -47 -9 -86
-15 -87 -13 -2 1 -11 53 -22 116 l-19 113 41 -6 c22 -3 115 -10 206 -17z
m-1491 -717 c15 -71 14 -112 -1 -112 -7 0 -76 -11 -153 -25 -182 -32 -208 -32
-230 1 -14 21 -14 28 -3 42 11 13 11 14 -1 8 -8 -6 -7 0 4 18 9 14 21 23 26
20 5 -3 9 -1 9 5 0 9 20 19 45 22 6 1 19 8 30 15 11 8 27 14 36 14 10 0 19 4
21 8 2 5 46 29 98 54 l95 45 7 -31 c3 -17 11 -55 17 -84z"/>
</g>
</svg>
