<?xml version="1.0" standalone="no"?>
<!DOCTYPE svg PUBLIC "-//W3C//DTD SVG 20010904//EN"
 "http://www.w3.org/TR/2001/REC-SVG-20010904/DTD/svg10.dtd">
<svg version="1.0" xmlns="http://www.w3.org/2000/svg"
 width="108.000000pt" height="108.000000pt" viewBox="0 0 108.000000 108.000000"
 preserveAspectRatio="xMidYMid meet">
<metadata>
Created by potrace 1.14, written by Peter Selinger 2001-2017
</metadata>
<g transform="translate(0.000000,108.000000) scale(0.100000,-0.100000)"
fill="#000000" stroke="none">
<path d="M152 1060 c-13 -15 -19 -34 -18 -60 1 -32 -4 -41 -27 -57 -32 -21
-77 -106 -76 -142 1 -57 51 -141 83 -141 8 0 16 -5 18 -11 2 -5 28 -12 57 -15
41 -3 65 -12 100 -39 46 -33 48 -36 59 -107 6 -40 14 -83 16 -96 4 -19 -3 -27
-49 -49 -57 -28 -69 -42 -58 -69 4 -12 17 -15 54 -12 27 1 51 -1 52 -7 2 -6
10 -5 19 3 9 7 22 10 31 7 8 -4 38 -2 66 3 50 9 51 9 44 -12 -4 -11 -16 -57
-28 -101 -19 -68 -25 -80 -43 -80 -34 -1 -31 -20 3 -23 33 -3 40 8 64 106 31
120 31 122 52 122 20 0 20 -5 18 -118 l-3 -117 35 3 c42 5 52 12 15 12 l-27 0
3 117 3 118 50 8 c70 12 78 21 72 83 l-5 52 44 6 c57 7 84 22 84 44 0 31 -22
42 -82 42 -54 0 -59 2 -68 26 -17 43 -11 72 23 124 22 33 41 51 60 56 39 8 94
66 106 111 14 50 14 76 -1 110 -13 29 -78 101 -78 86 0 -4 -4 -3 -8 4 -14 23
-69 27 -354 30 -281 4 -287 3 -306 -17z m543 -329 c3 -5 1 -12 -5 -16 -5 -3
-10 1 -10 9 0 18 6 21 15 7z m-375 -71 c0 -5 -4 -10 -10 -10 -5 0 -10 5 -10
10 0 6 5 10 10 10 6 0 10 -4 10 -10z m518 -164 c12 -12 -14 -24 -65 -31 l-53
-7 0 29 0 30 56 -8 c31 -4 59 -10 62 -13z m-458 -181 c0 -24 -15 -30 -90 -38
-30 -4 -14 25 25 43 54 25 65 24 65 -5z"/>
</g>
</svg>
